<svg width="575" height="545" viewBox="0 0 575 545" fill="none" xmlns="http://www.w3.org/2000/svg">
<path d="M69.3772 0C62.9412 0.00698235 56.7708 2.47977 52.2198 6.87585C47.6688 11.2719 45.1089 17.2323 45.1017 23.4493V520.595C45.1089 526.812 47.6688 532.773 52.2198 537.169C56.7708 541.565 62.9412 544.037 69.3772 544.044H294.685C301.121 544.037 307.291 541.564 311.842 537.168C316.393 532.772 318.953 526.812 318.96 520.595V23.4493C318.953 17.2323 316.393 11.2719 311.842 6.87585C307.291 2.47977 301.121 0.00698235 294.685 0H69.3772Z" fill="#E6E6E6"/>
<path d="M303.944 115.035V75.1418C291.114 72.2957 279.036 66.9055 268.477 59.3129C257.918 51.7204 249.107 42.0911 242.603 31.0359C239.483 33.2706 235.7 34.4734 231.816 34.4653H199.022C207.772 55.5332 222.047 74.0394 240.442 88.1654C258.838 102.291 280.722 111.551 303.944 115.035Z" fill="white"/>
<path d="M303.944 72.8555V34.5306C303.945 31.7271 303.374 28.9509 302.263 26.3607C301.153 23.7705 299.525 21.4169 297.473 19.4346C295.421 17.4522 292.984 15.8799 290.303 14.8075C287.621 13.735 284.748 13.1835 281.845 13.1844H250.006V16.885C250.01 19.2585 249.514 21.6079 248.549 23.7908C247.584 25.9736 246.17 27.9443 244.393 29.5835C250.683 40.3804 259.223 49.8001 269.473 57.2479C279.723 64.6956 291.46 70.0095 303.944 72.8541V72.8555Z" fill="white"/>
<path d="M150.788 34.4661H130.282C125.457 34.4647 120.829 32.6119 117.418 29.3152C114.006 26.0184 112.09 21.5478 112.091 16.8864V13.1858H82.2198C79.3176 13.1856 76.4438 13.7377 73.7625 14.8105C71.0812 15.8832 68.645 17.4557 66.5929 19.4381C64.5408 21.4205 62.9131 23.7739 61.8027 26.364C60.6923 28.9541 60.121 31.7301 60.1214 34.5335V509.529C60.1183 512.332 60.6879 515.108 61.7975 517.699C62.9072 520.289 64.5351 522.642 66.5879 524.624C68.6407 526.606 71.0782 528.177 73.7606 529.247C76.443 530.317 79.3176 530.865 82.2198 530.86H281.848C282.759 530.862 283.668 530.808 284.572 530.699C289.916 530.055 294.834 527.549 298.402 523.651C301.969 519.753 303.941 514.731 303.947 509.529V159.86C231.338 151.736 170.839 101.692 150.788 34.4661Z" fill="white"/>
<path d="M196.533 34.4661H153.186C173.138 100.446 232.598 149.535 303.944 157.625V117.307C280.102 113.785 257.633 104.281 238.784 89.7443C219.935 75.2072 205.366 56.1462 196.533 34.4661H196.533Z" fill="white"/>
<path d="M288.737 390.417H83.9115C82.9059 390.416 81.9418 390.029 81.2307 389.343C80.5196 388.656 80.1196 387.724 80.1184 386.753V337.674C80.1196 336.703 80.5196 335.772 81.2307 335.085C81.9418 334.398 82.9059 334.012 83.9115 334.01H288.737C289.742 334.012 290.706 334.398 291.417 335.085C292.128 335.772 292.528 336.703 292.53 337.674V386.754C292.528 387.725 292.128 388.656 291.417 389.343C290.706 390.03 289.742 390.416 288.737 390.417ZM83.9115 335.475C83.3079 335.475 82.729 335.707 82.3022 336.119C81.8754 336.531 81.6356 337.091 81.6356 337.674V386.753C81.6356 387.336 81.8754 387.895 82.3022 388.308C82.729 388.72 83.3079 388.951 83.9115 388.951H288.737C289.34 388.951 289.919 388.72 290.346 388.308C290.773 387.895 291.012 387.336 291.012 386.753V337.674C291.012 337.091 290.773 336.532 290.346 336.12C289.919 335.708 289.34 335.476 288.737 335.476L83.9115 335.475Z" fill="#E6E6E6"/>
<path d="M110.462 377.602C119.26 377.602 126.393 370.712 126.393 362.213C126.393 353.715 119.26 346.825 110.462 346.825C101.664 346.825 94.5312 353.715 94.5312 362.213C94.5312 370.712 101.664 377.602 110.462 377.602Z" fill="#3F3D56"/>
<path d="M147.255 351.954C146.551 351.954 145.875 352.225 145.377 352.706C144.879 353.187 144.6 353.839 144.6 354.519C144.6 355.199 144.879 355.852 145.377 356.333C145.875 356.814 146.551 357.084 147.255 357.084H272.426C273.13 357.084 273.805 356.814 274.303 356.333C274.801 355.852 275.081 355.199 275.081 354.519C275.081 353.839 274.801 353.187 274.303 352.706C273.805 352.225 273.13 351.954 272.426 351.954H147.255Z" fill="#E6E6E6"/>
<path d="M147.255 367.343C146.551 367.343 145.875 367.613 145.377 368.094C144.879 368.575 144.6 369.228 144.6 369.908C144.6 370.588 144.879 371.24 145.377 371.721C145.875 372.202 146.551 372.472 147.255 372.472H272.426C273.13 372.472 273.805 372.202 274.303 371.721C274.801 371.24 275.081 370.588 275.081 369.908C275.081 369.228 274.801 368.575 274.303 368.094C273.805 367.613 273.13 367.343 272.426 367.343H147.255Z" fill="#E6E6E6"/>
<path d="M288.737 472.49H83.9115C82.9059 472.488 81.9418 472.102 81.2307 471.415C80.5196 470.728 80.1196 469.797 80.1184 468.826V419.747C80.1196 418.776 80.5196 417.844 81.2307 417.158C81.9418 416.471 82.9059 416.084 83.9115 416.083H288.737C289.742 416.084 290.706 416.471 291.417 417.158C292.128 417.844 292.528 418.776 292.53 419.747V468.826C292.528 469.798 292.128 470.729 291.417 471.415C290.706 472.102 289.742 472.488 288.737 472.49ZM83.9115 417.548C83.3079 417.548 82.729 417.78 82.3022 418.192C81.8754 418.604 81.6356 419.163 81.6356 419.746V468.826C81.6356 469.409 81.8754 469.968 82.3022 470.38C82.729 470.792 83.3079 471.024 83.9115 471.024H288.737C289.34 471.024 289.919 470.792 290.346 470.38C290.773 469.968 291.012 469.409 291.012 468.826V419.747C291.012 419.164 290.773 418.605 290.346 418.193C289.919 417.78 289.34 417.549 288.737 417.549L83.9115 417.548Z" fill="#E6E6E6"/>
<path d="M110.462 459.675C119.26 459.675 126.393 452.785 126.393 444.286C126.393 435.787 119.26 428.897 110.462 428.897C101.664 428.897 94.5312 435.787 94.5312 444.286C94.5312 452.785 101.664 459.675 110.462 459.675Z" fill="#3F3D56"/>
<path d="M147.255 434.027C146.551 434.027 145.875 434.297 145.377 434.778C144.879 435.259 144.6 435.911 144.6 436.592C144.6 437.272 144.879 437.924 145.377 438.405C145.875 438.886 146.551 439.156 147.255 439.156H272.426C273.13 439.156 273.805 438.886 274.303 438.405C274.801 437.924 275.081 437.272 275.081 436.592C275.081 435.911 274.801 435.259 274.303 434.778C273.805 434.297 273.13 434.027 272.426 434.027H147.255Z" fill="#E6E6E6"/>
<path d="M147.255 449.416C146.551 449.416 145.875 449.686 145.377 450.167C144.879 450.648 144.6 451.3 144.6 451.98C144.6 452.661 144.879 453.313 145.377 453.794C145.875 454.275 146.551 454.545 147.255 454.545H272.426C273.13 454.545 273.805 454.275 274.303 453.794C274.801 453.313 275.081 452.661 275.081 451.98C275.081 451.3 274.801 450.648 274.303 450.167C273.805 449.686 273.13 449.416 272.426 449.416H147.255Z" fill="#E6E6E6"/>
<path d="M182.013 288.72C172.548 288.723 163.174 286.925 154.429 283.428C145.683 279.931 137.737 274.804 131.044 268.338C124.351 261.873 119.043 254.197 115.422 245.75C111.802 237.302 109.941 228.248 109.945 219.104C109.945 218.958 109.945 218.805 109.954 218.66C110.175 180.536 142.498 149.489 182.013 149.489C191.477 149.489 200.848 151.29 209.592 154.788C218.336 158.287 226.28 163.415 232.973 169.879C239.665 176.343 244.973 184.018 248.595 192.464C252.217 200.91 254.081 209.962 254.081 219.104C254.081 228.246 252.217 237.299 248.595 245.745C244.973 254.191 239.665 261.865 232.973 268.33C226.28 274.794 218.336 279.922 209.592 283.42C200.848 286.919 191.477 288.72 182.013 288.72ZM182.013 150.955C163.386 150.995 145.529 158.133 132.32 170.819C119.111 183.505 111.618 200.714 111.47 218.706C111.461 218.861 111.462 218.986 111.462 219.104C111.46 232.586 115.597 245.765 123.35 256.975C131.102 268.184 142.122 276.922 155.016 282.082C167.909 287.242 182.097 288.592 195.785 285.962C209.473 283.333 222.047 276.841 231.915 267.308C241.784 257.776 248.504 245.63 251.227 232.408C253.949 219.186 252.551 205.481 247.209 193.026C241.867 180.571 232.822 169.927 221.217 162.438C209.612 154.949 195.969 150.953 182.013 150.955Z" fill="#3F3D56"/>
<path d="M214.651 217.498L165.324 189.988C165.093 189.86 164.832 189.792 164.566 189.792C164.299 189.792 164.038 189.86 163.807 189.988C163.576 190.117 163.385 190.302 163.252 190.525C163.118 190.748 163.048 191 163.048 191.258V246.276C163.048 246.533 163.118 246.786 163.252 247.008C163.385 247.231 163.576 247.416 163.807 247.545C164.038 247.673 164.299 247.741 164.566 247.741C164.832 247.741 165.093 247.673 165.324 247.545L214.651 220.035C214.881 219.906 215.073 219.721 215.206 219.499C215.339 219.276 215.409 219.023 215.409 218.766C215.409 218.509 215.339 218.256 215.206 218.033C215.073 217.81 214.881 217.625 214.651 217.497L165.324 189.987C165.093 189.858 164.832 189.791 164.566 189.791C164.299 189.791 164.038 189.858 163.807 189.987C163.576 190.116 163.385 190.301 163.252 190.523C163.118 190.746 163.048 190.999 163.048 191.256V246.276C163.048 246.533 163.118 246.786 163.252 247.008C163.385 247.231 163.576 247.416 163.807 247.545C164.038 247.673 164.299 247.741 164.566 247.741C164.832 247.741 165.093 247.673 165.324 247.545L214.651 220.035C214.881 219.906 215.073 219.721 215.206 219.499C215.339 219.276 215.409 219.023 215.409 218.766C215.409 218.509 215.339 218.256 215.206 218.033C215.073 217.81 214.881 217.625 214.651 217.497V217.498Z" fill="#69E6A6"/>
<path d="M448.095 268.254C459.799 268.254 469.287 259.089 469.287 247.783C469.287 236.477 459.799 227.312 448.095 227.312C436.391 227.312 426.902 236.477 426.902 247.783C426.902 259.089 436.391 268.254 448.095 268.254Z" fill="#FFB8B8"/>
<path d="M446.725 362.548C446.316 361.317 446.18 360.017 446.328 358.733C446.475 357.449 446.902 356.209 447.58 355.095C448.258 353.981 449.172 353.018 450.262 352.269C451.352 351.52 452.594 351.002 453.906 350.75C454.322 350.672 454.742 350.623 455.165 350.603L477.489 315.994L457.1 297.267C456.312 296.554 455.678 295.696 455.235 294.744C454.793 293.792 454.552 292.764 454.525 291.721C454.498 290.678 454.687 289.64 455.08 288.668C455.472 287.696 456.062 286.809 456.813 286.059C457.564 285.309 458.463 284.711 459.456 284.3C460.449 283.89 461.517 283.674 462.597 283.665C463.677 283.657 464.748 283.857 465.748 284.253C466.747 284.649 467.655 285.233 468.419 285.971L496.573 312.791L496.63 312.858C497.501 314.138 497.921 315.655 497.829 317.184C497.737 318.713 497.136 320.173 496.117 321.346L464.838 357.077C464.932 357.363 465.009 357.654 465.071 357.949C465.333 359.216 465.314 360.522 465.017 361.781C464.719 363.041 464.15 364.226 463.345 365.258C462.541 366.29 461.52 367.146 460.349 367.77C459.178 368.395 457.883 368.773 456.55 368.88C456.281 368.903 456.013 368.915 455.746 368.915C453.74 368.907 451.787 368.287 450.167 367.143C448.547 366 447.343 364.392 446.725 362.548Z" fill="#FFB8B8"/>
<path d="M413.191 532.691H402.612L397.581 493.277H413.193L413.191 532.691Z" fill="#FFB8B8"/>
<path d="M416.32 543.013H381.348V542.176C381.348 540.437 381.702 538.715 382.391 537.109C383.08 535.502 384.09 534.042 385.363 532.813C386.636 531.583 388.147 530.608 389.81 529.943C391.473 529.277 393.256 528.935 395.056 528.935H416.321L416.32 543.013Z" fill="#2F2E41"/>
<path d="M518.334 518.563L509.244 523.792L484.046 492.413L497.462 484.698L518.334 518.563Z" fill="#FFB8B8"/>
<path d="M496.441 543.168L495.999 542.452C494.139 539.435 493.596 535.827 494.49 532.423C495.383 529.019 497.64 526.098 500.764 524.301L519.035 513.792L526.489 525.883L496.441 543.168Z" fill="#2F2E41"/>
<path d="M396.245 515.334C389.159 434.731 384.942 359.852 410.849 329.306L411.049 329.069L454.645 345.915L454.717 346.065C454.864 346.374 469.363 377.181 465.981 397.903L476.734 445.686L511.796 502.397C512.078 502.854 512.257 503.363 512.32 503.891C512.383 504.419 512.329 504.955 512.162 505.461C511.994 505.968 511.717 506.434 511.349 506.83C510.981 507.225 510.53 507.54 510.026 507.754L494.789 514.23C493.929 514.592 492.963 514.642 492.068 514.372C491.173 514.101 490.409 513.529 489.916 512.759L451.775 452.68L430.23 406.6C430.114 406.35 429.915 406.143 429.664 406.013C429.414 405.883 429.126 405.836 428.845 405.879C428.565 405.923 428.306 406.054 428.111 406.254C427.915 406.453 427.793 406.709 427.763 406.983L415.823 515.416C415.723 516.337 415.273 517.19 414.56 517.81C413.847 518.429 412.921 518.771 411.962 518.77H400.116C399.144 518.764 398.209 518.409 397.493 517.774C396.778 517.139 396.333 516.269 396.245 515.334Z" fill="#2F2E41"/>
<path d="M410.996 329.945L410.788 329.849L410.755 329.629C409.127 318.619 411.054 306.385 416.484 293.268C419.161 286.849 424.136 281.572 430.503 278.398C436.87 275.225 444.205 274.366 451.173 275.979C455.186 276.934 458.95 278.684 462.227 281.118C465.504 283.552 468.221 286.616 470.208 290.118C472.169 293.583 473.363 297.404 473.716 301.339C474.069 305.274 473.571 309.236 472.256 312.976C465.41 332.313 456.53 350.405 456.44 350.585L456.254 350.963L410.996 329.945Z" fill="#69E6A6"/>
<path d="M379.627 375.607C379.327 373.383 379.863 371.13 381.138 369.256C382.414 367.381 384.343 366.012 386.575 365.396L427.342 289.793C427.866 288.92 428.566 288.157 429.4 287.55C430.234 286.943 431.185 286.503 432.198 286.257C433.211 286.011 434.265 285.964 435.297 286.118C436.329 286.272 437.319 286.624 438.208 287.154C439.097 287.684 439.867 288.381 440.472 289.203C441.077 290.026 441.505 290.957 441.732 291.942C441.958 292.927 441.977 293.946 441.789 294.938C441.601 295.931 441.208 296.876 440.635 297.72L398.904 372.796C398.991 373.252 399.042 373.715 399.056 374.179C399.092 375.449 398.861 376.712 398.379 377.893C397.896 379.075 397.171 380.15 396.248 381.054C395.324 381.958 394.221 382.672 393.005 383.154C391.788 383.636 390.484 383.875 389.169 383.858C387.728 383.838 386.309 383.51 385.014 382.897C383.72 382.285 382.582 381.403 381.682 380.316C380.554 378.962 379.841 377.331 379.623 375.607H379.627Z" fill="#FFB8B8"/>
<path d="M422.399 236.219H456.05V222.05C448.665 219.215 441.437 216.804 437.068 222.05C433.177 222.05 429.446 223.542 426.695 226.2C423.945 228.857 422.399 232.461 422.399 236.219Z" fill="#2F2E41"/>
<path d="M457.914 219.549C478.031 219.549 483.662 243.907 483.662 257.649C483.662 265.313 480.074 268.055 474.435 268.981L472.444 258.722L467.781 269.421C466.197 269.428 464.533 269.399 462.808 269.368L461.227 266.223L457.701 269.312C443.579 269.332 432.166 271.32 432.166 257.648C432.166 243.908 437.104 219.549 457.914 219.549Z" fill="#2F2E41"/>
<path d="M451.919 239.62V220.665C451.919 220.44 451.873 220.218 451.784 220.01C451.695 219.803 451.565 219.614 451.401 219.456C451.236 219.297 451.041 219.171 450.827 219.085C450.612 218.999 450.382 218.955 450.149 218.955H446.61C446.377 218.955 446.147 218.999 445.932 219.085C445.718 219.171 445.522 219.297 445.358 219.456C445.194 219.614 445.063 219.803 444.974 220.01C444.885 220.218 444.84 220.44 444.84 220.665V238.477C442.223 238.887 439.841 240.182 438.121 242.131C436.4 244.079 435.453 246.555 435.446 249.116C435.44 251.678 436.376 254.158 438.087 256.114C439.798 258.071 442.172 259.377 444.788 259.799C447.403 260.221 450.088 259.733 452.365 258.42C454.642 257.107 456.361 255.056 457.218 252.632C458.075 250.209 458.012 247.57 457.041 245.186C456.071 242.803 454.256 240.83 451.919 239.62Z" fill="#69E6A6"/>
<path d="M447.2 254.283C450.132 254.283 452.509 251.987 452.509 249.155C452.509 246.323 450.132 244.027 447.2 244.027C444.268 244.027 441.891 246.323 441.891 249.155C441.891 251.987 444.268 254.283 447.2 254.283Z" fill="white"/>
</svg>
