<svg width="764" height="546" viewBox="0 0 764 546" fill="none" xmlns="http://www.w3.org/2000/svg">
<g clip-path="url(#clip0_991_252)">
<path d="M605.946 444.169H0V0H605.946V444.169Z" fill="white"/>
<path d="M605.946 444.169H0V0H605.946V444.169ZM8.95281 435.645H596.994V8.525H8.95281V435.645Z" fill="#E5E5E5"/>
<path d="M158.585 334.819H112.708C111.466 334.818 110.275 334.347 109.396 333.511C108.518 332.674 108.023 331.54 108.022 330.357V270.137C108.023 268.954 108.518 267.82 109.396 266.984C110.275 266.147 111.466 265.677 112.708 265.675H158.585C159.828 265.677 161.019 266.147 161.897 266.984C162.776 267.82 163.27 268.954 163.271 270.137V330.357C163.27 331.54 162.776 332.674 161.897 333.511C161.019 334.347 159.828 334.818 158.585 334.819Z" fill="#E6E6E6"/>
<path d="M242.249 334.819H196.371C195.129 334.818 193.938 334.347 193.059 333.511C192.181 332.674 191.687 331.54 191.685 330.357V213.018C191.687 211.835 192.181 210.701 193.059 209.865C193.938 209.028 195.129 208.558 196.371 208.557H242.249C243.491 208.558 244.682 209.028 245.56 209.865C246.439 210.701 246.933 211.835 246.935 213.018V330.357C246.933 331.54 246.439 332.674 245.56 333.511C244.682 334.347 243.491 334.818 242.249 334.819Z" fill="#E6E6E6"/>
<path d="M325.912 334.819H280.034C278.792 334.818 277.601 334.347 276.723 333.511C275.844 332.674 275.35 331.54 275.349 330.357V270.137C275.35 268.954 275.844 267.82 276.723 266.984C277.601 266.147 278.792 265.677 280.034 265.675H325.912C327.154 265.677 328.345 266.147 329.224 266.984C330.102 267.82 330.596 268.954 330.598 270.137V330.357C330.596 331.54 330.102 332.674 329.224 333.511C328.345 334.347 327.154 334.818 325.912 334.819Z" fill="#E6E6E6"/>
<path d="M409.575 334.819H363.698C362.484 334.844 361.309 334.41 360.43 333.611C359.552 332.813 359.042 331.715 359.012 330.559V190.269C359.042 189.113 359.552 188.016 360.43 187.218C361.309 186.419 362.484 185.985 363.698 186.01H409.575C410.789 185.985 411.964 186.419 412.842 187.218C413.721 188.016 414.231 189.113 414.261 190.269V330.559C414.231 331.715 413.721 332.813 412.842 333.611C411.964 334.41 410.789 334.844 409.575 334.819Z" fill="#E6E6E6"/>
<path d="M493.238 334.819H447.361C446.119 334.818 444.928 334.347 444.049 333.511C443.171 332.674 442.677 331.54 442.675 330.357V149.887C442.677 148.704 443.171 147.57 444.049 146.734C444.928 145.897 446.119 145.427 447.361 145.426H493.238C494.481 145.427 495.672 145.897 496.55 146.734C497.429 147.57 497.923 148.704 497.924 149.887V330.357C497.923 331.54 497.429 332.674 496.55 333.511C495.672 334.347 494.481 334.818 493.238 334.819Z" fill="#F2F2F2"/>
<path d="M135.647 247.638C140.878 247.638 145.118 243.6 145.118 238.619C145.118 233.638 140.878 229.6 135.647 229.6C130.416 229.6 126.175 233.638 126.175 238.619C126.175 243.6 130.416 247.638 135.647 247.638Z" fill="#1B0A40"/>
<path d="M219.31 189.016C224.541 189.016 228.781 184.978 228.781 179.997C228.781 175.016 224.541 170.979 219.31 170.979C214.079 170.979 209.839 175.016 209.839 179.997C209.839 184.978 214.079 189.016 219.31 189.016Z" fill="#1B0A40"/>
<path d="M302.973 247.638C308.204 247.638 312.444 243.6 312.444 238.619C312.444 233.638 308.204 229.6 302.973 229.6C297.742 229.6 293.502 233.638 293.502 238.619C293.502 243.6 297.742 247.638 302.973 247.638Z" fill="#1B0A40"/>
<path d="M386.636 160.457C391.867 160.457 396.108 156.419 396.108 151.438C396.108 146.457 391.867 142.419 386.636 142.419C381.406 142.419 377.165 146.457 377.165 151.438C377.165 156.419 381.406 160.457 386.636 160.457Z" fill="#1B0A40"/>
<path d="M470.3 127.388C475.531 127.388 479.771 123.35 479.771 118.369C479.771 113.388 475.531 109.351 470.3 109.351C465.069 109.351 460.828 113.388 460.828 118.369C460.828 123.35 465.069 127.388 470.3 127.388Z" fill="#1B0A40"/>
<path d="M303.173 240.639L219.31 180.827L136.594 239.822L134.701 237.416L219.31 177.07L302.773 236.599L385.714 150.172L386.047 150.043L469.709 117.945L470.89 120.734L387.559 152.704L303.173 240.639Z" fill="#1B0A40"/>
<path d="M587.33 531.273L573.08 531.272L566.3 478.932L587.333 478.932L587.33 531.273Z" fill="#FFB6B6"/>
<path d="M590.965 544.427L545.014 544.425V543.872C545.015 539.355 546.899 535.023 550.253 531.83C553.607 528.636 558.156 526.842 562.9 526.841H562.901L590.966 526.842L590.965 544.427Z" fill="#2F2E41"/>
<path d="M536.401 309.737L544.492 432.482L571.656 518.882L592.701 520.333L582.133 415.035L586.767 345.106C586.767 345.106 608.733 329.515 596.588 310.746L536.401 309.737Z" fill="#2F2E41"/>
<path d="M596.63 531.273L582.378 531.272L575.599 478.932L596.632 478.932L596.63 531.273Z" fill="#FFB6B6"/>
<path d="M600.264 544.427L554.314 544.425V543.872C554.314 539.355 556.198 535.023 559.552 531.83C562.906 528.636 567.455 526.842 572.199 526.841H572.2L600.265 526.842L600.264 544.427Z" fill="#2F2E41"/>
<path d="M545.7 309.737L553.791 432.482L580.955 518.882L602 520.333L591.432 415.035L596.066 345.106C596.066 345.106 618.032 329.515 605.887 310.746L545.7 309.737Z" fill="#2F2E41"/>
<path d="M589.559 328.745C565.291 328.745 536.728 314.623 535.073 313.793L534.612 313.562L590.31 178.26L617.894 165.851C620.018 164.896 622.371 164.497 624.711 164.697C627.051 164.897 629.292 165.688 631.203 166.988C633.115 168.288 634.628 170.05 635.585 172.093C636.542 174.136 636.91 176.384 636.65 178.608L625.703 272.115L614.277 320.546L614.156 320.66C607.849 326.593 599.029 328.745 589.559 328.745Z" fill="#3F3D56"/>
<path d="M500.555 239.177C501.999 238.306 503.625 237.746 505.32 237.538C507.014 237.33 508.737 237.478 510.365 237.972C511.993 238.466 513.487 239.294 514.743 240.398C515.999 241.502 516.985 242.854 517.632 244.36L559.109 242.202L548.226 259.953L510.508 259.28C507.779 260.148 504.811 260.033 502.165 258.956C499.52 257.879 497.381 255.916 496.154 253.438C494.928 250.96 494.698 248.14 495.509 245.511C496.32 242.883 498.116 240.629 500.555 239.177Z" fill="#FFB6B6"/>
<path d="M582.406 266.963L540.841 265.953L541.378 239.772L561.032 233.815L593.271 190.758C594.885 188.602 596.937 186.776 599.305 185.388C601.673 184 604.31 183.079 607.058 182.678C609.807 182.277 612.612 182.405 615.308 183.054C618.004 183.703 620.535 184.861 622.753 186.458C624.971 188.055 626.83 190.059 628.221 192.352C629.611 194.645 630.504 197.18 630.848 199.808C631.192 202.435 630.978 205.102 630.221 207.65C629.464 210.197 628.178 212.575 626.439 214.641L582.406 266.963Z" fill="#3F3D56"/>
<path d="M606.472 160.866C621.726 160.866 634.091 149.091 634.091 134.567C634.091 120.042 621.726 108.268 606.472 108.268C591.219 108.268 578.854 120.042 578.854 134.567C578.854 149.091 591.219 160.866 606.472 160.866Z" fill="#FFB6B6"/>
<path d="M571.531 112.651C574.318 109.93 577.94 108.12 581.876 107.482C585.712 106.696 589.92 106.453 592.988 104.162C596.476 101.516 598.01 96.4912 602.288 95.3733C604.148 95.0172 606.077 95.1628 607.855 95.7939C614.691 97.7572 620.759 101.61 625.291 106.862C626.36 108.368 627.721 109.664 629.302 110.681C630.247 111.062 631.17 111.491 632.068 111.965C633.053 112.705 633.828 113.668 634.323 114.765C637.407 120.694 638.118 127.489 636.322 133.881C635.253 137.655 633.323 141.153 632.184 144.949C631.045 148.746 625.777 155.968 624.545 154.175C623.313 152.382 621.732 150.71 621.058 148.64C619.742 144.569 620.93 140.472 617.585 137.644C615.516 135.895 611.773 134.722 610.366 136.98C609.808 137.854 609.843 138.961 609.367 139.869C608.425 141.64 605.705 141.994 603.903 140.976C602.167 139.834 600.946 138.111 600.486 136.15C597.777 127.428 593.163 121.938 583.364 125.668C579.714 127.062 575.413 128.003 571.903 125.612C567.276 122.469 568.218 116.237 571.531 112.651Z" fill="#2F2E41"/>
<path d="M509.512 349.208H463.634C462.392 349.207 461.201 348.736 460.323 347.9C459.444 347.063 458.95 345.929 458.948 344.746V164.276C458.95 163.093 459.444 161.959 460.323 161.123C461.201 160.286 462.392 159.816 463.634 159.815H509.512C510.754 159.816 511.945 160.286 512.824 161.123C513.702 161.959 514.196 163.093 514.198 164.276V344.746C514.196 345.929 513.702 347.063 512.824 347.9C511.945 348.736 510.754 349.207 509.512 349.208Z" fill="#69E6A6"/>
<path d="M499.393 254.673C500.836 253.802 502.463 253.242 504.157 253.034C505.852 252.826 507.574 252.974 509.202 253.468C510.83 253.962 512.325 254.79 513.581 255.894C514.836 256.998 515.823 258.35 516.47 259.856L557.946 257.698L547.063 275.449L509.345 274.776C506.617 275.644 503.648 275.529 501.003 274.452C498.357 273.375 496.219 271.412 494.992 268.934C493.765 266.456 493.536 263.635 494.347 261.007C495.158 258.379 496.953 256.125 499.393 254.673Z" fill="#FFB6B6"/>
<path d="M581.244 282.459L539.679 281.448L540.215 255.268L559.87 249.311L592.109 206.254C593.723 204.098 595.775 202.272 598.143 200.884C600.511 199.496 603.147 198.575 605.896 198.174C608.644 197.773 611.45 197.901 614.145 198.55C616.841 199.199 619.373 200.357 621.591 201.954C623.809 203.551 625.668 205.555 627.058 207.848C628.448 210.141 629.342 212.676 629.685 215.304C630.029 217.931 629.816 220.598 629.059 223.145C628.301 225.693 627.015 228.07 625.276 230.137L581.244 282.459Z" fill="#3F3D56"/>
</g>
<defs>
<clipPath id="clip0_991_252">
<rect width="764" height="546" fill="white"/>
</clipPath>
</defs>
</svg>
